<svg width="95" height="27" viewBox="0 0 95 27" fill="none" xmlns="http://www.w3.org/2000/svg">
<path d="M3.80706 3.33113C4.11582 1.41151 5.77251 0 7.7168 0H90.3522C92.7901 0 94.6491 2.18185 94.2619 4.58887L91.1929 23.6689C90.8842 25.5885 89.2275 27 87.2832 27H4.64785C2.20989 27 0.350943 24.8181 0.738104 22.4111L3.80706 3.33113Z" fill="#202020"/>
<path d="M7.49263 20L9.90863 8.64H13.2846C14.33 8.64 15.1566 8.92267 15.7646 9.488C16.3833 10.0533 16.6926 10.7253 16.6926 11.504C16.6926 12.624 16.2233 13.504 15.2846 14.144C16.0953 14.6133 16.5006 15.3547 16.5006 16.368C16.5006 17.4347 16.1113 18.3093 15.3326 18.992C14.554 19.664 13.4446 20 12.0046 20H7.49263ZM10.2446 17.856H12.2286C12.8473 17.856 13.3273 17.7227 13.6686 17.456C14.0206 17.1893 14.1966 16.8427 14.1966 16.416C14.1966 16.0853 14.0793 15.8133 13.8446 15.6C13.6206 15.376 13.306 15.264 12.9006 15.264H10.8046L10.2446 17.856ZM11.2206 13.296H12.6126C13.1673 13.296 13.5993 13.1627 13.9086 12.896C14.2286 12.6293 14.3886 12.2827 14.3886 11.856C14.3886 11.5467 14.2766 11.2907 14.0526 11.088C13.8286 10.8747 13.5193 10.768 13.1246 10.768H11.7646L11.2206 13.296ZM21.6656 20.176C20.5136 20.176 19.5856 19.808 18.8816 19.072C18.1776 18.3253 17.8256 17.424 17.8256 16.368C17.8256 15.0453 18.2363 13.9573 19.0576 13.104C19.8896 12.2507 20.9936 11.824 22.3696 11.824C23.6176 11.824 24.6096 12.256 25.3456 13.12C26.0923 13.984 26.343 15.1147 26.0976 16.512H19.8896C19.9323 17.0453 20.1296 17.472 20.4816 17.792C20.8336 18.112 21.271 18.272 21.7936 18.272C22.615 18.272 23.2123 17.9787 23.5856 17.392H25.9056C25.1483 19.248 23.735 20.176 21.6656 20.176ZM22.1456 13.6C21.6763 13.6 21.239 13.7333 20.8336 14C20.4283 14.256 20.1563 14.6133 20.0176 15.072H23.9216C23.8576 14.592 23.6603 14.2293 23.3296 13.984C22.999 13.728 22.6043 13.6 22.1456 13.6ZM31.1344 20.176C29.9824 20.176 29.0544 19.808 28.3504 19.072C27.6464 18.3253 27.2944 17.424 27.2944 16.368C27.2944 15.0453 27.705 13.9573 28.5264 13.104C29.3584 12.2507 30.4624 11.824 31.8384 11.824C33.0864 11.824 34.0784 12.256 34.8144 13.12C35.561 13.984 35.8117 15.1147 35.5664 16.512H29.3584C29.401 17.0453 29.5984 17.472 29.9504 17.792C30.3024 18.112 30.7397 18.272 31.2624 18.272C32.0837 18.272 32.681 17.9787 33.0544 17.392H35.3744C34.617 19.248 33.2037 20.176 31.1344 20.176ZM31.6144 13.6C31.145 13.6 30.7077 13.7333 30.3024 14C29.897 14.256 29.625 14.6133 29.4864 15.072H33.3904C33.3264 14.592 33.129 14.2293 32.7984 13.984C32.4677 13.728 32.073 13.6 31.6144 13.6ZM36.4111 20L38.9551 8H41.1471L38.6031 20H36.4111ZM45.0916 10.288C44.825 10.5547 44.4996 10.688 44.1156 10.688C43.7316 10.688 43.401 10.5547 43.1236 10.288C42.8463 10.0107 42.7076 9.68 42.7076 9.296C42.7076 8.912 42.8463 8.58667 43.1236 8.32C43.401 8.04267 43.7316 7.904 44.1156 7.904C44.4996 7.904 44.825 8.04267 45.0916 8.32C45.369 8.58667 45.5076 8.912 45.5076 9.296C45.5076 9.68 45.369 10.0107 45.0916 10.288ZM40.7236 20L42.4196 12H44.6116L42.9156 20H40.7236ZM45.0361 20L46.7321 12H48.9241L48.7481 12.832C49.3561 12.1707 50.1455 11.84 51.1161 11.84C52.0655 11.84 52.7588 12.2133 53.1961 12.96C53.6441 13.696 53.7668 14.5547 53.5641 15.536L52.6201 20H50.4281L51.3401 15.696C51.4681 15.0987 51.4255 14.6347 51.2121 14.304C51.0095 13.9733 50.6681 13.808 50.1881 13.808C49.0895 13.808 48.3855 14.544 48.0761 16.016L47.2281 20H45.0361ZM58.7906 20.176C57.6386 20.176 56.7106 19.808 56.0066 19.072C55.3026 18.3253 54.9506 17.424 54.9506 16.368C54.9506 15.0453 55.3613 13.9573 56.1826 13.104C57.0146 12.2507 58.1186 11.824 59.4946 11.824C60.7426 11.824 61.7346 12.256 62.4706 13.12C63.2173 13.984 63.468 15.1147 63.2226 16.512H57.0146C57.0573 17.0453 57.2546 17.472 57.6066 17.792C57.9586 18.112 58.396 18.272 58.9186 18.272C59.74 18.272 60.3373 17.9787 60.7106 17.392H63.0306C62.2733 19.248 60.86 20.176 58.7906 20.176ZM59.2706 13.6C58.8013 13.6 58.364 13.7333 57.9586 14C57.5533 14.256 57.2813 14.6133 57.1426 15.072H61.0466C60.9826 14.592 60.7853 14.2293 60.4546 13.984C60.124 13.728 59.7293 13.6 59.2706 13.6Z" fill="#FFDB5B"/>
<path d="M82.9997 11.2749L82.2368 11.9545C82.0744 12.1083 81.8813 12.1851 81.6576 12.1851C81.4337 12.1851 81.2326 12.1221 81.0543 11.9962C80.8918 11.8753 80.7811 11.7142 80.7224 11.5128C80.6636 11.3115 80.6706 11.0922 80.7432 10.8551L81.1086 9.68513L80.3043 9.2045C80.114 9.09548 79.9804 8.94027 79.9036 8.73888C79.8267 8.53749 79.8149 8.33478 79.8682 8.13075C79.9217 7.932 80.0379 7.77603 80.2168 7.66284C80.3958 7.5495 80.6012 7.49284 80.833 7.49284H81.7945L82.0765 6.57305C82.1439 6.35194 82.2636 6.17214 82.4355 6.03367C82.6076 5.89534 82.7956 5.82617 82.9997 5.82617C83.2037 5.82617 83.3918 5.89534 83.5638 6.03367C83.7358 6.17214 83.8554 6.35194 83.9228 6.57305L84.2049 7.49284H85.1663C85.3929 7.49284 85.5934 7.5495 85.768 7.66284C85.9427 7.77603 86.0638 7.932 86.1311 8.13075C86.2122 8.34339 86.2136 8.55173 86.1351 8.75575C86.0566 8.95978 85.9292 9.10937 85.7528 9.2045L84.8907 9.68513L85.2561 10.8391C85.3288 11.0709 85.337 11.2923 85.2809 11.5033C85.2248 11.7142 85.1129 11.8785 84.9451 11.9962C84.7636 12.1276 84.5617 12.1919 84.3395 12.1891C84.1172 12.1864 83.925 12.1083 83.7626 11.9545L82.9997 11.2749ZM83.5695 9.61701C83.7238 9.4627 83.8009 9.27284 83.8009 9.04742C83.8009 8.82201 83.7238 8.63207 83.5695 8.47763C83.415 8.32332 83.2251 8.24617 82.9997 8.24617C82.7743 8.24617 82.5843 8.32332 82.4299 8.47763C82.2756 8.63207 82.1984 8.82201 82.1984 9.04742C82.1984 9.27284 82.2756 9.4627 82.4299 9.61701C82.5843 9.77145 82.7743 9.84867 82.9997 9.84867C83.2251 9.84867 83.415 9.77145 83.5695 9.61701ZM79.0991 18.8518C79.3864 19.5997 79.2889 20.2974 78.8065 20.9447C78.3242 21.5922 77.6519 21.916 76.7897 21.916C76.3741 21.916 75.9829 21.8033 75.6159 21.5778C75.2488 21.3524 74.9708 21.0506 74.7818 20.6724C73.7625 20.7749 72.9104 20.4851 72.2257 19.803C71.5409 19.1208 71.2411 18.2642 71.3265 17.2333C70.9313 17.0292 70.6252 16.7344 70.4084 16.3487C70.1915 15.963 70.083 15.5249 70.083 15.0345C70.083 14.2514 70.4364 13.6315 71.1432 13.1747C71.8499 12.718 72.5606 12.6371 73.2753 12.932L74.4709 13.4255C74.7005 12.9576 75.0352 12.5762 75.4749 12.2814C75.9145 11.9865 76.3981 11.8252 76.9259 11.7974V10.6018C76.9259 10.4587 76.9729 10.3402 77.067 10.2462C77.161 10.1521 77.2796 10.1051 77.4228 10.1051C77.5659 10.1051 77.6844 10.1521 77.7784 10.2462C77.8725 10.3402 77.9195 10.4587 77.9195 10.6018V11.8999C78.4761 12.0099 78.9438 12.2522 79.3226 12.6268C79.7013 13.0012 79.9741 13.4962 80.1407 14.1116H81.4132C81.5563 14.1116 81.6748 14.1585 81.7688 14.2524C81.8629 14.3464 81.9099 14.4651 81.9099 14.6083C81.9099 14.7514 81.8629 14.8701 81.7688 14.9641C81.6748 15.0581 81.5563 15.1051 81.4132 15.1051H80.2176C80.1898 15.6275 80.0301 16.1085 79.7384 16.5483C79.4468 16.9878 79.067 17.3251 78.599 17.5601L79.0991 18.8518ZM74.4293 19.448C74.4025 19.073 74.419 18.6991 74.4788 18.3262C74.5387 17.9534 74.6365 17.5869 74.7722 17.2268C74.4366 17.3796 74.0768 17.4833 73.6928 17.5378C73.3088 17.5923 72.9281 17.5976 72.5509 17.5537C72.567 18.1221 72.7487 18.58 73.0959 18.9272C73.4431 19.2744 73.8876 19.448 74.4293 19.448ZM72.9515 16.3199C73.4281 16.3199 73.8765 16.2456 74.297 16.097C74.7174 15.9485 75.2145 15.6862 75.7882 15.3101L73.0157 14.1403C72.5809 13.9577 72.1917 13.9652 71.8482 14.1628C71.5047 14.3605 71.333 14.6681 71.333 15.0858C71.333 15.4737 71.4751 15.7763 71.7593 15.9937C72.0434 16.2112 72.4409 16.3199 72.9515 16.3199ZM76.7897 20.666C77.1956 20.666 77.5223 20.5217 77.7697 20.2333C78.017 19.9448 78.0745 19.6392 77.942 19.3166L76.7368 16.2589C76.3875 16.7675 76.1238 17.2614 75.9459 17.7405C75.768 18.2197 75.679 18.6692 75.679 19.0891C75.679 19.5741 75.7777 19.9582 75.9749 20.2414C76.172 20.5244 76.4436 20.666 76.7897 20.666ZM78.1086 16.3776C78.365 16.228 78.5723 16.0133 78.7305 15.7333C78.8886 15.4534 78.9676 15.151 78.9676 14.8262C78.9676 14.3284 78.8004 13.9053 78.4661 13.557C78.1317 13.2087 77.7198 13.0345 77.2305 13.0345C76.8897 13.0345 76.5801 13.1136 76.3018 13.2718C76.0234 13.4299 75.8159 13.6414 75.679 13.9064L77.4003 14.6724L78.1086 16.3776Z" fill="#FFDB5B"/>
</svg>
