<svg width="116" height="26" viewBox="16 8 116 26" fill="none" xmlns="http://www.w3.org/2000/svg">
<path d="M18.6359 32V9.088H27.8519C29.1959 9.088 30.3905 9.36533 31.4359 9.92C32.5025 10.4533 33.3345 11.168 33.9319 12.064C34.5505 12.9387 34.8599 13.9093 34.8599 14.976C34.8599 16.2133 34.5612 17.2587 33.9639 18.112C33.3879 18.9653 32.6305 19.5947 31.6919 20V20.256C32.9292 20.6827 33.8999 21.3653 34.6039 22.304C35.3292 23.2213 35.6919 24.352 35.6919 25.696C35.6919 26.976 35.3612 28.0853 34.6999 29.024C34.0385 29.9627 33.1319 30.6987 31.9799 31.232C30.8492 31.744 29.5799 32 28.1719 32H18.6359ZM21.2599 22.304V18.272H27.3719C28.0119 18.272 28.5452 18.1653 28.9719 17.952C29.4199 17.7387 29.7505 17.44 29.9639 17.056C30.1985 16.672 30.3159 16.2453 30.3159 15.776C30.3159 15.2853 30.2092 14.8587 29.9959 14.496C29.7825 14.1333 29.4625 13.8453 29.0359 13.632C28.6092 13.4187 28.0972 13.312 27.4999 13.312H23.2759V27.744H27.8519C28.5559 27.744 29.1319 27.6373 29.5799 27.424C30.0492 27.1893 30.4012 26.8693 30.6359 26.464C30.8919 26.0587 31.0199 25.5893 31.0199 25.056C31.0199 24.48 30.9025 23.9893 30.6679 23.584C30.4332 23.1787 30.0705 22.8693 29.5799 22.656C29.0892 22.4213 28.4705 22.304 27.7239 22.304H21.2599ZM44.5119 32.512C42.5065 32.512 40.9919 31.8933 39.9679 30.656C38.9439 29.4187 38.4319 27.7333 38.4319 25.6V15.68H42.9439V24.928C42.9439 26.0373 43.1892 26.912 43.6799 27.552C44.1705 28.1707 44.8319 28.48 45.6639 28.48C46.4532 28.48 47.1252 28.2773 47.6799 27.872C48.2345 27.4667 48.6505 26.912 48.9279 26.208C49.2265 25.504 49.3759 24.7147 49.3759 23.84V15.68H53.8879V32H49.6639V29.952H49.4079C49.1092 30.464 48.7145 30.912 48.2239 31.296C47.7332 31.68 47.1679 31.9787 46.5279 32.192C45.9092 32.4053 45.2372 32.512 44.5119 32.512ZM57.6536 32V15.68H61.9096V17.76H62.1656C62.507 17.2267 62.9123 16.768 63.3816 16.384C63.8723 16 64.427 15.7013 65.0456 15.488C65.6643 15.2747 66.3256 15.168 67.0296 15.168C68.203 15.168 69.2056 15.4453 70.0376 16C70.8696 16.5547 71.4563 17.2373 71.7976 18.048C72.267 17.2587 72.9496 16.5867 73.8456 16.032C74.763 15.456 75.8936 15.168 77.2376 15.168C79.1576 15.168 80.6083 15.744 81.5896 16.896C82.571 18.048 83.0616 19.584 83.0616 21.504V32H78.5816V22.432C78.5816 21.4293 78.3363 20.6613 77.8456 20.128C77.3763 19.5947 76.7683 19.328 76.0216 19.328C75.339 19.328 74.731 19.52 74.1976 19.904C73.6856 20.288 73.291 20.832 73.0136 21.536C72.7363 22.2187 72.5976 23.0187 72.5976 23.936V32H68.1176V22.432C68.1176 21.4293 67.883 20.6613 67.4136 20.128C66.9443 19.5947 66.2723 19.328 65.3976 19.328C64.7576 19.328 64.1816 19.52 63.6696 19.904C63.179 20.288 62.8056 20.832 62.5496 21.536C62.2936 22.2187 62.1656 23.0187 62.1656 23.936V32H57.6536ZM96.0601 32.512C95.2708 32.512 94.5561 32.3947 93.9161 32.16C93.2975 31.9467 92.7535 31.6693 92.2841 31.328C91.8361 30.9653 91.4735 30.5813 91.1961 30.176H90.9721V32H86.7161V9.088H91.2281V15.36L90.9721 17.568H91.2281C91.5055 17.1627 91.8681 16.7787 92.3161 16.416C92.7641 16.032 93.2975 15.7333 93.9161 15.52C94.5561 15.2853 95.2708 15.168 96.0601 15.168C97.5535 15.168 98.8868 15.5307 100.06 16.256C101.233 16.9813 102.161 17.9947 102.844 19.296C103.527 20.5973 103.868 22.112 103.868 23.84C103.868 25.568 103.527 27.0827 102.844 28.384C102.161 29.6853 101.233 30.6987 100.06 31.424C98.8868 32.1493 97.5535 32.512 96.0601 32.512ZM95.1641 28.384C95.9321 28.384 96.6255 28.2027 97.2441 27.84C97.8841 27.456 98.4068 26.9227 98.8121 26.24C99.2175 25.536 99.4201 24.736 99.4201 23.84C99.4201 22.9227 99.2175 22.1333 98.8121 21.472C98.4068 20.8107 97.8841 20.2987 97.2441 19.936C96.6255 19.552 95.9321 19.36 95.1641 19.36C94.4388 19.36 93.7561 19.552 93.1161 19.936C92.4761 20.2987 91.9535 20.8213 91.5481 21.504C91.1641 22.1653 90.9721 22.944 90.9721 23.84C90.9721 24.7573 91.1641 25.5573 91.5481 26.24C91.9535 26.9013 92.4761 27.424 93.1161 27.808C93.7561 28.192 94.4388 28.384 95.1641 28.384ZM106.778 32V9.088H111.29V32H106.778ZM122.805 32.512C121.141 32.512 119.658 32.1387 118.357 31.392C117.055 30.6453 116.031 29.6213 115.285 28.32C114.559 27.0187 114.197 25.536 114.197 23.872C114.197 22.3147 114.559 20.8747 115.285 19.552C116.031 18.2293 117.034 17.1733 118.293 16.384C119.573 15.5733 121.023 15.168 122.645 15.168C124.415 15.168 125.898 15.5413 127.093 16.288C128.309 17.0347 129.226 18.0373 129.845 19.296C130.463 20.5333 130.773 21.9093 130.773 23.424C130.773 23.7653 130.762 24.0853 130.741 24.384C130.719 24.6827 130.698 24.8853 130.677 24.992H116.821V21.792H126.485C126.463 21.4933 126.357 21.1733 126.165 20.832C125.994 20.4907 125.749 20.1707 125.429 19.872C125.13 19.5733 124.757 19.328 124.309 19.136C123.861 18.944 123.349 18.848 122.773 18.848C121.983 18.848 121.258 19.0507 120.597 19.456C119.935 19.8613 119.413 20.4267 119.029 21.152C118.666 21.8773 118.485 22.7307 118.485 23.712C118.485 24.7573 118.687 25.6427 119.093 26.368C119.498 27.0933 120.031 27.648 120.693 28.032C121.375 28.3947 122.111 28.576 122.901 28.576C123.839 28.576 124.639 28.3733 125.301 27.968C125.983 27.5627 126.506 27.0507 126.869 26.432L130.517 28.192C129.749 29.5147 128.725 30.5707 127.445 31.36C126.186 32.128 124.639 32.512 122.805 32.512Z" fill="#202020"/>
</svg>
